<svg width="525" height="177" viewBox="0 0 525 177" fill="none" xmlns="http://www.w3.org/2000/svg">
<path d="M507.568 7.76172H16.3242C10.9512 7.76172 6.5625 12.1559 6.5625 17.5357V52.5661H518.109V18.3571C518.15 12.5255 513.393 7.76172 507.568 7.76172Z" fill="#003599"/>
<path d="M507.568 169.32H16.3242C10.9512 169.32 6.5625 164.926 6.5625 159.546V52.5661H518.109V158.684C518.15 164.557 513.393 169.32 507.568 169.32Z" fill="white"/>
<path d="M507.445 10.9239C511.834 10.9239 515.443 14.4968 515.443 18.932V157.698C515.443 162.093 511.875 165.706 507.445 165.706H17.7188C13.3301 165.706 9.7207 162.134 9.7207 157.698V18.932C9.7207 14.5378 13.2891 10.9239 17.7188 10.9239H507.445ZM507.445 3.69606H17.7188C9.31055 3.69606 2.50195 10.5132 2.50195 18.932V157.698C2.50195 166.117 9.31055 172.934 17.7188 172.934H507.445C515.853 172.934 522.662 166.117 522.662 157.698V18.932C522.662 10.5132 515.853 3.69606 507.445 3.69606Z" fill="black"/>
<path d="M69.4034 149.248C69.4034 149.675 69.1368 149.888 68.6034 149.888H36.7634C36.1234 149.888 35.8034 149.541 35.8034 148.848V139.968C35.8034 139.648 35.9901 139.435 36.3634 139.328L47.1634 137.168C47.3768 137.061 47.5634 136.821 47.7234 136.448V91.4081C47.7234 91.0348 47.6968 90.6615 47.6434 90.2881C47.6434 89.8615 47.3768 89.4615 46.8434 89.0881C46.0434 88.5015 45.2168 87.8881 44.3634 87.2481C43.5634 86.6081 43.1634 86.0215 43.1634 85.4881V80.5281C43.1634 80.1015 43.2968 79.6748 43.5634 79.2481C43.8834 78.8215 44.4168 78.6081 45.1634 78.6081H60.9234C62.0434 78.6081 62.6034 79.1148 62.6034 80.1281V85.8881C62.6034 86.3148 62.1501 86.8215 61.2434 87.4081C59.6968 88.3681 58.7901 88.9815 58.5234 89.2481C58.2568 89.4615 58.1234 90.1815 58.1234 91.4081V137.168C58.1234 137.488 58.3101 137.648 58.6834 137.648L68.6034 139.088C69.1368 139.088 69.4034 139.275 69.4034 139.648V149.248Z" fill="black"/>
<g clip-path="url(#clip0_19_2)">
<path d="M145.788 102.288C145.788 112.155 142.694 118.955 136.508 122.688C132.614 125.035 127.174 126.208 120.188 126.208H116.588C116.054 126.208 115.734 126.315 115.628 126.528C115.521 126.741 115.468 127.301 115.468 128.208V149.728C115.468 150.261 115.228 150.528 114.748 150.528H105.068C104.641 150.528 104.428 150.261 104.428 149.728L104.188 88.4481C104.188 87.8615 104.028 87.5148 103.708 87.4081C103.388 87.2481 102.641 87.1681 101.468 87.1681C100.934 87.1681 100.668 87.0881 100.668 86.9281V79.4081C100.668 78.8748 100.934 78.6081 101.468 78.6081H122.908C128.881 78.6081 134.054 80.6081 138.428 84.6081C143.334 89.0881 145.788 94.9815 145.788 102.288ZM135.628 99.7281C135.628 95.8881 133.894 92.8481 130.428 90.6081C127.601 88.7948 124.401 87.8881 120.828 87.8881H116.588C116.214 87.8881 116.028 88.1548 116.028 88.6881V116.128C116.028 116.395 116.614 116.528 117.788 116.528C118.161 116.528 118.721 116.501 119.468 116.448C120.214 116.395 120.668 116.368 120.828 116.368C127.014 116.368 131.228 114.795 133.468 111.648C134.908 109.621 135.628 106.528 135.628 102.368V99.7281Z" fill="black"/>
</g>
<g clip-path="url(#clip1_19_2)">
<path d="M215.412 149.088C215.412 149.728 215.039 150.048 214.292 150.048H170.932C170.292 150.048 169.972 149.808 169.972 149.328V139.088C169.972 138.821 169.972 138.581 169.972 138.368C170.026 138.155 170.132 137.941 170.292 137.728C171.892 135.168 175.039 130.208 179.732 122.848C183.199 117.461 187.786 110.315 193.492 101.408C198.292 93.9415 200.879 89.9415 201.252 89.4081C201.466 89.0881 201.572 88.8481 201.572 88.6881C201.572 88.3681 201.146 88.2081 200.292 88.2081H171.652C170.746 88.2081 170.292 87.8615 170.292 87.1681V80.0481C170.292 79.2481 170.612 78.8481 171.252 78.8481H213.492C214.559 78.8481 215.092 79.3548 215.092 80.3681V88.2081C215.092 88.4215 215.066 88.6081 215.012 88.7681C214.959 88.9281 214.906 89.0615 214.852 89.1681C213.679 91.3015 212.959 92.6081 212.692 93.0881C211.626 94.8481 209.866 97.4881 207.412 101.008C207.252 101.221 204.906 104.821 200.372 111.808C196.799 117.301 193.119 123.035 189.332 129.008C185.546 134.928 183.652 138.075 183.652 138.448C183.652 139.088 183.919 139.408 184.452 139.408H214.292C215.039 139.408 215.412 139.675 215.412 140.208V149.088Z" fill="black"/>
</g>
<g clip-path="url(#clip2_19_2)">
<path d="M284.16 149.168C284.16 149.808 283.707 150.128 282.8 150.128H243.28C242.8 150.128 242.453 149.941 242.24 149.568C242.027 149.195 241.92 148.715 241.92 148.128V139.968C241.92 139.008 242.373 138.528 243.28 138.528H260.08C261.093 138.528 261.6 138.368 261.6 138.048V93.8881C261.013 93.5681 260.507 93.5681 260.08 93.8881C259.6 94.2081 257.973 95.8881 255.2 98.9281C253.173 101.115 251.573 102.208 250.4 102.208H242.96C242.533 102.208 242.32 101.755 242.32 100.848V94.2881C242.32 93.5415 242.933 92.8748 244.16 92.2881C245.973 91.4348 247.093 90.7948 247.52 90.3681L260.08 78.8481C260.453 78.5815 260.96 78.4481 261.6 78.4481H270.96C271.493 78.4481 271.947 78.6081 272.32 78.9281C272.747 79.1948 272.96 79.5415 272.96 79.9681V137.168C272.96 138.235 273.6 138.688 274.88 138.528H282.8C283.707 138.528 284.16 138.875 284.16 139.568V149.168Z" fill="black"/>
</g>
<g clip-path="url(#clip3_19_2)">
<path d="M354.893 149.008C354.893 149.168 354.893 149.355 354.893 149.568C354.733 149.888 354.306 150.048 353.613 150.048H313.133C312.173 150.048 311.559 149.915 311.293 149.648C311.026 149.381 310.893 148.741 310.893 147.728V79.8081C310.893 78.9015 311.346 78.4481 312.253 78.4481H349.773C350.733 78.4481 351.213 78.8215 351.213 79.5681V86.2081C351.213 86.9548 350.653 87.3281 349.533 87.3281H323.373C322.466 87.3281 321.959 87.6748 321.853 88.3681C321.746 89.0081 321.693 89.9948 321.693 91.3281V102.288C321.693 102.928 321.799 103.355 322.013 103.568C322.226 103.728 322.839 103.808 323.853 103.808H341.613C342.359 103.808 342.919 103.968 343.293 104.288C343.719 104.555 343.933 104.928 343.933 105.408V110.848C343.933 111.488 343.719 111.915 343.293 112.128C342.866 112.341 342.413 112.448 341.933 112.448H324.653C323.159 112.448 322.279 112.501 322.013 112.608C321.799 112.715 321.693 113.221 321.693 114.128V137.488C321.693 138.235 322.413 138.608 323.853 138.608H353.133C354.306 138.608 354.893 138.981 354.893 139.728V149.008Z" fill="black"/>
</g>
<path d="M422.738 131.008C422.738 135.915 421.165 140.101 418.018 143.568C414.178 147.781 408.738 149.888 401.698 149.888C393.645 149.888 387.912 148.155 384.498 144.688C381.512 141.701 380.018 137.035 380.018 130.688C380.018 129.728 380.178 129.088 380.498 128.768C380.818 128.395 381.218 128.208 381.698 128.208C382.125 128.261 382.418 128.288 382.578 128.288H390.898C391.538 128.288 391.858 128.821 391.858 129.888C391.858 131.435 391.912 132.555 392.018 133.248C392.125 133.941 392.552 134.715 393.298 135.568C394.258 136.688 395.352 137.461 396.578 137.888C397.858 138.315 399.325 138.528 400.978 138.528C404.125 138.528 406.578 137.835 408.338 136.448C410.098 135.061 410.978 133.141 410.978 130.688V123.408C410.712 122.021 410.365 121.008 409.938 120.368C408.552 118.341 406.232 117.328 402.978 117.328H396.098C395.672 117.275 395.245 117.221 394.818 117.168C394.392 117.115 394.178 116.928 394.178 116.608V109.888C394.338 109.248 394.472 108.875 394.578 108.768L410.978 91.8881C411.138 91.7281 411.218 91.4081 411.218 90.9281V89.8881C411.218 88.3948 410.978 87.6481 410.498 87.6481H384.258C383.938 87.6481 383.645 87.5681 383.378 87.4081C382.845 87.0881 382.578 86.6615 382.578 86.1281V80.2081C382.578 79.7815 382.738 79.4348 383.058 79.1681C383.432 78.8481 383.832 78.6881 384.258 78.6881H421.458C422.525 78.6881 423.058 79.1948 423.058 80.2081V92.5281C423.058 93.5415 422.072 95.2215 420.098 97.5681C418.498 99.4881 416.205 101.915 413.218 104.848C411.725 106.395 410.872 107.275 410.658 107.488C409.752 108.448 409.298 109.115 409.298 109.488C409.298 110.235 410.418 110.768 412.658 111.088C414.898 111.408 416.792 112.155 418.338 113.328C419.938 114.448 421.112 115.701 421.858 117.088C422.445 118.155 422.738 119.141 422.738 120.048V131.008Z" fill="black"/>
<g clip-path="url(#clip4_19_2)">
<path d="M492.746 136.848C492.746 141.168 491.492 144.555 488.986 147.008C486.852 149.088 484.292 150.128 481.306 150.128H464.666C460.666 150.128 457.546 148.635 455.306 145.648C453.279 142.981 452.266 139.621 452.266 135.568V93.1681C452.266 87.8881 453.626 84.0215 456.346 81.5681C458.639 79.4881 461.732 78.4481 465.626 78.4481H478.346C482.879 78.4481 486.346 79.3548 488.746 81.1681C490.559 82.5548 491.466 84.0748 491.466 85.7281C491.466 86.5815 491.306 87.1681 490.986 87.4881L484.746 93.8081C484.426 94.1281 483.946 94.1548 483.306 93.8881C482.719 93.6215 482.426 93.1948 482.426 92.6081V89.0881C482.426 88.0215 481.732 87.4881 480.346 87.4881H465.386C464.692 87.4881 464.132 87.7015 463.706 88.1281C463.332 88.5015 463.146 88.9548 463.146 89.4881V136.848C463.146 137.648 463.386 138.181 463.866 138.448C464.346 138.768 464.932 138.928 465.626 138.928H479.706C481.092 138.928 481.786 138.421 481.786 137.408V102.368C481.786 102.155 481.812 101.995 481.866 101.888C481.972 101.728 482.052 101.621 482.106 101.568C485.679 98.3681 487.999 96.2615 489.066 95.2481C490.186 94.1815 491.199 93.1681 492.106 92.2081C492.159 92.1548 492.266 92.1815 492.426 92.2881C492.639 92.3415 492.746 92.4481 492.746 92.6081V136.848Z" fill="black"/>
</g>
<path d="M471.926 45.79H506.133C507.281 45.79 508.225 44.8455 508.225 43.6956V19.8355C508.225 18.6856 507.281 17.7411 506.133 17.7411H471.926C470.777 17.7411 469.834 18.6856 469.834 19.8355V43.6956C469.793 44.8455 470.736 45.79 471.926 45.79Z" fill="#009239"/>
<path d="M505.928 18.6446C506.707 18.6446 507.323 19.2606 507.323 20.0408V43.4492C507.323 44.2295 506.707 44.8455 505.928 44.8455H472.131C471.352 44.8455 470.737 44.2295 470.737 43.4492V20.0408C470.737 19.2606 471.352 18.6446 472.131 18.6446H505.928ZM505.928 17.7411H472.131C470.86 17.7411 469.834 18.7678 469.834 20.0408V43.4492C469.834 44.7223 470.86 45.749 472.131 45.749H505.928C507.2 45.749 508.225 44.7223 508.225 43.4492V20.0408C508.225 18.7678 507.2 17.7411 505.928 17.7411Z" fill="white"/>
<path d="M489.029 43.0796L504.492 31.745L489.029 20.4515L473.525 31.745L489.029 43.0796Z" fill="#FAC611"/>
<path d="M488.783 38.0694C492.272 38.0694 495.1 35.2379 495.1 31.745C495.1 28.2522 492.272 25.4207 488.783 25.4207C485.295 25.4207 482.467 28.2522 482.467 31.745C482.467 35.2379 485.295 38.0694 488.783 38.0694Z" fill="#242174"/>
<path d="M483.492 28.3364C483.123 28.9114 482.836 29.5684 482.672 30.2666C485.461 29.7738 490.465 29.6095 494.936 33.3877C495.059 32.8949 495.141 32.361 495.141 31.7861C495.141 31.6218 495.141 31.4165 495.1 31.2522C490.957 28.2132 486.486 28.0079 483.492 28.3364Z" fill="white"/>
<path fill-rule="evenodd" clip-rule="evenodd" d="M46.9629 17.8232L48.2344 18.1928L46.9629 18.5624L46.5938 19.8355L46.2246 18.5624L44.9531 18.1928L46.2246 17.8232L46.5938 16.5501L46.9629 17.8232ZM42.4922 22.2995L43.7637 22.6691L42.4922 23.0387L42.123 24.3118L41.7539 23.0387L40.4824 22.6691L41.7539 22.2995L42.123 21.0264L42.4922 22.2995ZM52.418 20.6979L53.6895 21.0675L52.418 21.4371L52.0488 22.7102L51.6797 21.4371L50.4082 21.0675L51.6797 20.6979L52.0488 19.4248L52.418 20.6979ZM48.8496 30.8005L50.1211 31.1701L48.8496 31.5397L48.4805 32.8128L48.1113 31.5397L46.8398 31.1701L48.1113 30.8005L48.4805 29.5274L48.8496 30.8005Z" fill="white"/>
<path d="M27.5215 38.6854C34.2891 36.8373 41.1387 35.5232 48.1934 34.784C55.248 34.0448 62.4258 33.9216 69.7266 34.3322L69.6855 34.7429C62.3848 34.3322 55.248 34.4965 48.2344 35.1947C41.2207 35.9339 34.3301 37.207 27.5625 39.055L27.5215 38.6854Z" fill="white"/>
<path fill-rule="evenodd" clip-rule="evenodd" d="M29.3672 47.1863H28.957H28.5469V41.3548H28.957H29.3672L31.3359 43.6956L33.2637 41.3548H33.6328H34.002V47.1863H33.5508H33.1406V42.71L31.2949 44.9276H31.2539H31.2129L29.3672 42.71V47.1863Z" fill="white"/>
<path fill-rule="evenodd" clip-rule="evenodd" d="M34.9043 47.1863V41.3548H38.2266V41.7244V42.094H35.7656V43.8599H38.1445V44.2295V44.5991H35.7656V46.4471H38.3086V46.8167V47.1863H34.9043Z" fill="white"/>
<path fill-rule="evenodd" clip-rule="evenodd" d="M42.4102 45.4204C42.123 44.9687 41.8359 44.6812 41.5488 44.4759L41.4258 44.3937C41.6309 44.3116 41.8359 44.2295 41.959 44.1063C42.2871 43.8188 42.4512 43.4492 42.4512 42.9564C42.4512 42.4636 42.2871 42.0529 41.959 41.7654C41.6309 41.478 41.1797 41.3548 40.5645 41.3548H39.498H39.0879V47.1863H39.498H39.9082V44.6401H40.1953C40.4824 44.6401 40.7285 44.7223 40.9336 44.8865C41.1387 45.0508 41.3848 45.2972 41.6309 45.7079L42.5742 47.2274H43.0664H43.5586L42.4102 45.4204ZM40.5645 43.8599H39.9082V42.135H40.5645C40.8926 42.135 41.1387 42.2172 41.3027 42.3404C41.4668 42.5046 41.5488 42.71 41.5488 42.9974C41.5488 43.2849 41.4668 43.4903 41.3027 43.6545C41.1797 43.7777 40.9336 43.8599 40.5645 43.8599Z" fill="white"/>
<path fill-rule="evenodd" clip-rule="evenodd" d="M48.9316 46.7346C48.5215 46.9399 48.1934 47.0631 47.8652 47.1452C47.5371 47.2274 47.209 47.2684 46.8398 47.2684C45.9375 47.2684 45.1992 46.981 44.584 46.406C43.9687 45.8311 43.6816 45.0919 43.6816 44.2705C43.6816 43.4081 43.9687 42.71 44.584 42.135C45.1992 41.5601 45.9375 41.2726 46.8398 41.2726C47.209 41.2726 47.5781 41.3137 47.8652 41.3958C48.1934 41.478 48.5215 41.6012 48.9316 41.8065V42.71C48.5625 42.4636 48.2344 42.2993 47.9063 42.1761C47.5781 42.0529 47.25 42.0118 46.8398 42.0118C46.1426 42.0118 45.6094 42.2172 45.1582 42.6278C44.707 43.0385 44.502 43.5724 44.502 44.2295C44.502 44.8865 44.707 45.4204 45.1582 45.8311C45.6094 46.2418 46.1426 46.4471 46.8398 46.4471C47.209 46.4471 47.5781 46.406 47.9063 46.2828C48.2344 46.1596 48.5625 45.9954 48.9316 45.749V46.7346Z" fill="white"/>
<path fill-rule="evenodd" clip-rule="evenodd" d="M54.9199 42.135C54.3047 41.5601 53.5664 41.2726 52.7051 41.2726C51.8437 41.2726 51.1055 41.5601 50.4902 42.135C49.875 42.71 49.5879 43.4492 49.5879 44.2705C49.5879 45.1329 49.875 45.8311 50.4902 46.406C51.1055 46.981 51.8437 47.2684 52.7051 47.2684C53.5664 47.2684 54.3457 46.981 54.9199 46.406C55.5352 45.8311 55.8223 45.0919 55.8223 44.2705C55.8223 43.4081 55.4941 42.71 54.9199 42.135ZM54.3047 45.8722C53.8945 46.2828 53.3203 46.4882 52.6641 46.4882C52.0078 46.4882 51.4746 46.2828 51.0234 45.8722C50.6133 45.4615 50.4082 44.9276 50.4082 44.2705C50.4082 43.6135 50.6133 43.0796 51.0234 42.6689C51.4336 42.2582 52.0078 42.0529 52.6641 42.0529C53.3203 42.0529 53.8945 42.2582 54.3047 42.6689C54.7148 43.0796 54.9199 43.6135 54.9199 44.2705C54.9199 44.9276 54.7148 45.4615 54.3047 45.8722Z" fill="white"/>
<path fill-rule="evenodd" clip-rule="evenodd" d="M59.5547 42.6278C59.3496 42.4225 59.1445 42.2582 58.9395 42.1761C58.7344 42.094 58.4883 42.0118 58.2832 42.0118C57.9961 42.0118 57.75 42.094 57.5449 42.2172C57.3809 42.3404 57.2578 42.5046 57.2578 42.751C57.2578 42.9564 57.3398 43.1206 57.5039 43.2849C57.668 43.4492 57.9551 43.6545 58.3242 43.8599C58.8574 44.1473 59.2266 44.4348 59.4316 44.7223C59.6367 45.0097 59.7598 45.2972 59.7598 45.6258C59.7598 46.1186 59.5957 46.5292 59.3086 46.8167C59.0215 47.1042 58.6113 47.2684 58.1191 47.2684C57.791 47.2684 57.5039 47.2274 57.2578 47.1452C57.0117 47.0631 56.7246 46.8988 56.4785 46.6935V45.6668C56.7246 45.9543 56.9707 46.1596 57.2578 46.3239C57.5039 46.4471 57.791 46.5292 58.0781 46.5292C58.3652 46.5292 58.5703 46.4471 58.7344 46.3239C58.8984 46.1596 58.9805 45.9954 58.9805 45.749C58.9805 45.5436 58.8984 45.3383 58.7344 45.174C58.5703 45.0097 58.2832 44.8044 57.9141 44.558C57.3809 44.2705 57.0117 43.9831 56.8066 43.7367C56.6016 43.4903 56.4785 43.2028 56.4785 42.8742C56.4785 42.3814 56.6426 42.0118 56.9707 41.7244C57.2988 41.4369 57.709 41.2726 58.2832 41.2726C58.5293 41.2726 58.7344 41.3137 58.9395 41.3548C59.1445 41.4369 59.3496 41.519 59.5957 41.6833V42.6278H59.5547Z" fill="white"/>
<path fill-rule="evenodd" clip-rule="evenodd" d="M65.543 45.0097C65.543 45.6668 65.2969 46.2418 64.8457 46.6524C64.3945 47.0631 63.7793 47.2684 63.041 47.2684C62.3027 47.2684 61.6875 47.0631 61.2363 46.6524C60.7852 46.2418 60.5391 45.7079 60.5391 45.0097V41.3548H60.9492H61.3594V44.8865C61.3594 45.4204 61.5234 45.8311 61.8105 46.1186C62.0977 46.406 62.5078 46.5703 63.041 46.5703C63.5742 46.5703 63.9844 46.406 64.2715 46.1186C64.5586 45.8311 64.7227 45.4204 64.7227 44.8865V41.3548H65.1328H65.543V45.0097Z" fill="white"/>
<path fill-rule="evenodd" clip-rule="evenodd" d="M66.6504 47.1863V41.3548H67.0605H67.5117V46.4471H70.1367V46.8167V47.1863H66.6504Z" fill="white"/>
<path d="M221.936 25.0921H227.391C231.164 25.0921 232.764 26.3241 232.764 28.9114V29.5685C232.764 31.2522 232.025 32.32 230.426 32.8128V32.8538C232.354 33.3466 233.133 34.5376 233.133 36.3035V37.7408C233.133 40.287 231.246 41.6833 227.637 41.6833H221.936V25.0921ZM226.98 31.8272C228.334 31.8272 229.154 31.4165 229.154 30.0613V29.1578C229.154 27.9668 228.58 27.474 227.309 27.474H225.545V31.8272H226.98ZM227.637 39.2603C228.867 39.2603 229.523 38.8497 229.523 37.6176V36.1803C229.523 34.6608 228.826 34.168 227.186 34.168H225.586V39.2603H227.637Z" fill="white"/>
<path d="M236.537 25.0921H241.91C245.684 25.0921 247.283 26.3241 247.283 28.9114V29.9381C247.283 31.6218 246.545 32.7306 244.904 33.1824V33.2234C246.709 33.6341 247.324 34.8661 247.324 36.7142V39.6299C247.324 40.4513 247.365 41.0262 247.734 41.6422H244.043C243.838 41.2316 243.715 40.9441 243.715 39.6299V36.5499C243.715 35.0304 243.1 34.5376 241.459 34.5376H240.187V41.6422H236.578V25.0921H236.537ZM241.459 32.1557C242.812 32.1557 243.633 31.745 243.633 30.3898V29.1578C243.633 27.9668 243.059 27.474 241.787 27.474H240.146V32.1968H241.459V32.1557Z" fill="white"/>
<path d="M253.887 25.0921H258.809L262.582 41.6422H258.973L258.316 38.3569V38.3979H254.215L253.559 41.6422H250.195L253.887 25.0921ZM257.865 36.1392L256.266 27.9668H256.184L254.584 36.1392H257.865Z" fill="white"/>
<path d="M264.879 37.6998V36.7552H268.324V37.9051C268.324 39.0961 269.062 39.5067 270.211 39.5067C271.359 39.5067 272.098 39.0961 272.098 37.864C272.098 36.5088 271.359 35.6053 268.98 34.1269C265.945 32.1968 264.961 30.8826 264.961 28.9935C264.961 26.4063 266.848 24.8868 270.375 24.8868C273.902 24.8868 275.625 26.3652 275.625 28.9935V29.6917H272.18V28.8292C272.18 27.6383 271.523 27.1865 270.375 27.1865C269.227 27.1865 268.57 27.6383 268.57 28.7882C268.57 29.9791 269.309 30.8826 271.688 32.361C274.723 34.2912 275.666 35.6053 275.666 37.6587C275.666 40.3691 273.738 41.8476 270.211 41.8476C266.643 41.8476 264.879 40.3281 264.879 37.6998Z" fill="white"/>
<path d="M279.029 25.0921H282.639V41.6422H279.029V25.0921Z" fill="white"/>
<path d="M286.658 25.0921H290.268V39.2603H296.215V41.6422H286.617V25.0921H286.658Z" fill="white"/>
<defs>
<clipPath id="clip0_19_2">
<rect width="70" height="90" fill="white" transform="translate(87.25 60.3281)"/>
</clipPath>
<clipPath id="clip1_19_2">
<rect width="70" height="90" fill="white" transform="translate(157.25 60.3281)"/>
</clipPath>
<clipPath id="clip2_19_2">
<rect width="70" height="90" fill="white" transform="translate(227.25 60.3281)"/>
</clipPath>
<clipPath id="clip3_19_2">
<rect width="70" height="90" fill="white" transform="translate(297.25 60.3281)"/>
</clipPath>
<clipPath id="clip4_19_2">
<rect width="70" height="90" fill="white" transform="translate(437.25 60.3281)"/>
</clipPath>
</defs>
</svg>
